<?xml version="1.0" encoding="utf-8"?>
<!-- Generator: Adobe Illustrator 25.2.1, SVG Export Plug-In . SVG Version: 6.00 Build 0)  -->
<svg version="1.1" id="Capa_1" xmlns="http://www.w3.org/2000/svg" xmlns:xlink="http://www.w3.org/1999/xlink" x="0px" y="0px"
	 viewBox="0 0 60 60" style="enable-background:new 0 0 60 60;" xml:space="preserve">
<style type="text/css">
	.st0{fill:#FFFFFF;}
	.st1{fill:#333333;}
</style>
<path class="st0" d="M48.7,60H11.3C5,60,0,55,0,48.7V11.3C0,5,5,0,11.3,0h37.4C55,0,60,5,60,11.3v37.4C60,55,55,60,48.7,60z"/>
<g>
	<path class="st1" d="M45,22.1c-3.9,0-7.1-3.2-7.1-7.1c0-0.8,0.1-1.4,0.3-2.2l0.1-0.4H21.7l0.2,0.4c0.2,0.7,0.3,1.4,0.3,2.2
		c0,3.9-3.2,7.1-7.1,7.1S7.9,18.9,7.9,15s3.2-7.1,7.1-7.1h30c3.9,0,7.1,3.2,7.1,7.1S48.9,22.1,45,22.1z"/>
	<path class="st0" d="M45,8.2c3.8,0,6.8,3,6.8,6.8s-3,6.8-6.8,6.8s-6.8-3-6.8-6.8c0-0.7,0.1-1.4,0.3-2l0.3-1h-1H22.1h-1l0.3,1
		c0.3,0.7,0.4,1.4,0.4,2c0,3.8-3,6.8-6.8,6.8s-6.8-3-6.8-6.8s3-6.8,6.8-6.8H45 M45,7.5H15c-4.1,0-7.5,3.4-7.5,7.5s3.4,7.5,7.5,7.5
		s7.5-3.4,7.5-7.5c0-0.8-0.2-1.6-0.4-2.2h15.7c-0.2,0.7-0.3,1.5-0.3,2.2c0,4.1,3.4,7.5,7.5,7.5s7.5-3.4,7.5-7.5S49.1,7.5,45,7.5
		L45,7.5z"/>
</g>
<g>
	<path class="st1" d="M15,52.1c-3.9,0-7.1-3.2-7.1-7.1s3.2-7.1,7.1-7.1s7.1,3.2,7.1,7.1c0,0.8-0.1,1.4-0.3,2.2l-0.2,0.4h16.7
		l-0.2-0.4c-0.2-0.7-0.3-1.4-0.3-2.2c0-3.9,3.2-7.1,7.1-7.1s7.1,3.2,7.1,7.1s-3.2,7.1-7.1,7.1H15z"/>
	<path class="st0" d="M45,38.2c3.8,0,6.8,3,6.8,6.8s-3,6.8-6.8,6.8H15c-3.8,0-6.8-3-6.8-6.8s3-6.8,6.8-6.8s6.8,3,6.8,6.8
		c0,0.7-0.1,1.3-0.3,2l-0.3,1h1h15.7h1.1l-0.3-1c-0.3-0.7-0.4-1.3-0.4-2C38.2,41.2,41.2,38.2,45,38.2 M45,37.5
		c-4.1,0-7.5,3.4-7.5,7.5c0,0.8,0.2,1.6,0.4,2.2H22.1c0.2-0.7,0.4-1.5,0.4-2.2c0-4.1-3.4-7.5-7.5-7.5S7.5,40.9,7.5,45
		s3.4,7.5,7.5,7.5h30c4.1,0,7.5-3.4,7.5-7.5S49.1,37.5,45,37.5L45,37.5z"/>
</g>
<g>
	<path class="st1" d="M22.5,45c0,0.8-0.2,1.6-0.4,2.2h15.7c-0.2-0.7-0.4-1.5-0.4-2.2c0-2.8,1.5-5.2,3.8-6.5V21.5
		c-2.2-1.3-3.8-3.8-3.8-6.5c0-0.8,0.1-1.6,0.4-2.2H22.1c0.2,0.7,0.4,1.5,0.4,2.2c0,2.8-1.5,5.2-3.8,6.5v17
		C21,39.8,22.5,42.2,22.5,45z M36.4,15.5c0-0.2,0.2-0.4,0.4-0.4s0.4,0.1,0.4,0.4v29c0,0.2-0.2,0.4-0.4,0.4s-0.4-0.2-0.4-0.4V15.5z
		 M31.9,15.5c0-0.2,0.2-0.4,0.4-0.4s0.4,0.1,0.4,0.4v29c0,0.2-0.2,0.4-0.4,0.4s-0.4-0.2-0.4-0.4V15.5z M27.4,15.5
		c0-0.2,0.2-0.4,0.4-0.4s0.4,0.1,0.4,0.4v29c0,0.2-0.2,0.4-0.4,0.4s-0.4-0.2-0.4-0.4V15.5z M22.6,15.5c0-0.2,0.1-0.4,0.4-0.4
		c0.2,0,0.4,0.1,0.4,0.4v29c0,0.2-0.2,0.4-0.4,0.4c-0.2,0-0.4-0.2-0.4-0.4V15.5z"/>
</g>
</svg>
