<?xml version="1.0" encoding="utf-8"?>
<!-- Generator: Adobe Illustrator 25.2.1, SVG Export Plug-In . SVG Version: 6.00 Build 0)  -->
<svg version="1.1" id="Capa_1" xmlns="http://www.w3.org/2000/svg" xmlns:xlink="http://www.w3.org/1999/xlink" x="0px" y="0px"
	 viewBox="0 0 1000 1000" style="enable-background:new 0 0 1000 1000;" xml:space="preserve">
<style type="text/css">
	.st0{fill:#311D93;}
	.st1{fill:#4C28CE;}
	.st2{fill:#221560;}
</style>
<g>
	<circle class="st0" cx="497.1" cy="522.5" r="354.1"/>
	
		<ellipse transform="matrix(0.541 -0.841 0.841 0.541 -128.4107 665.7352)" class="st1" cx="545.7" cy="450.5" rx="254.9" ry="329.6"/>
	<g>
		<g transform="translate(0.000000,511.000000) scale(0.100000,-0.100000)">
			<path class="st2" d="M1883.4,4862.2c-201-65.9-442.8-288.9-530.6-493c-97.3-229.2-78.5-580.9,40.8-788.2
				c304.6-518.1,1001.7-590.4,1413-150.7c505.6,540.1,150.7,1422.5-590.4,1466.4C2103.2,4903,1968.2,4890.5,1883.4,4862.2z
				 M2436.1,4598.4c248.1-109.9,380-351.7,354.8-650c-31.4-389.4-420.8-650-803.9-543.3c-251.2,69.1-477.3,361.1-477.3,612.3
				c0,213.5,194.7,511.9,392.5,596.6C2037.2,4673.8,2288.5,4667.5,2436.1,4598.4z"/>
			<path class="st2" d="M4225.9,3496.3c-910.6-194.7-1733.4-728.5-2248.3-1450.7c-153.9-216.7-499.2-876.1-499.2-957.7
				c0-18.9-43.9-62.8-100.5-97.3C1183.2,868,910,563.4,809.5,359.3c-232.4-471-65.9-992.3,445.9-1400.5
				c150.7-119.4,179-163.3,285.8-436.5c119.4-301.5,119.4-304.6,84.8-543.3c-59.6-433.3,56.5-838.3,314-1080.2
				c244.9-235.5,574.7-329.7,1014.3-298.3c257.5,22,273.2,18.9,527.6-91.1c144.4-62.8,398.8-150.7,565.2-197.8
				c279.5-75.4,354.8-81.6,916.9-81.6c571.5,0,634.3,6.2,926.3,84.8c376.8,106.8,872.9,336,1193.2,555.8
				c292,204.1,665.7,571.5,869.8,863.5c150.7,210.4,496.2,869.8,496.2,948.3c0,18.9,47.1,65.9,103.7,100.5
				c182.1,109.9,489.9,461.6,577.8,653.1c216.7,467.8,28.2,1011.1-480.4,1397.3c-94.6,69.2-170,141.4-170,163.4
				c0,18.9-50.2,147.6-109.9,285.8L8261,1533.8l34.6,254.3c65.9,471-53.3,854.1-345.4,1117.8c-226.1,204.2-423.9,260.6-913.8,263.8
				c-373.7,0-405.1,6.2-624.9,103.7c-442.8,194.7-772.5,260.6-1369.1,273.2C4602.7,3555.9,4458.3,3546.6,4225.9,3496.3z
				 M5654.7,3257.6c879.2-182.1,1664.2-709.7,2166.6-1460.1l185.3-279.5l-50.2-163.3c-65.9-222.9-147.6-427.1-260.6-653.1
				l-94.3-185.3l-204.1,18.9c-257.5,25.1-445.9-28.2-612.3-169.6C6593.6,199.1,6521.4,39,6518.2-224.8
				c0-185.2,12.5-244.9,87.9-370.5c59.6-100.5,78.5-163.3,59.6-197.8c-37.7-65.9-609.2-643.8-844.7-851l-197.8-172.7l-744.2,12.5
				c-835.3,18.9-1240.3,65.9-1877.8,229.2c-464.7,119.4-810.1,248.1-1130.5,417.6c-197.8,106.8-222.9,128.7-257.5,254.4
				c-78.5,276.3-109.9,769.3-72.2,1121c84.8,785,395.7,1463.3,932.6,2022.2c552.6,580.9,1199.5,923.1,1987.7,1052
				C4775.5,3345.6,5299.8,3329.9,5654.7,3257.6z M7664.3,2818c257.5-141.3,411.4-430.2,405.1-778.7v-160.1l-53.4,78.5
				c-28.2,40.8-147.6,191.5-263.8,329.7c-182.1,216.7-314,339.1-637.4,596.6c-59.6,47.1-47.1,50.2,160.1,37.7
				C7444.5,2912.2,7538.7,2887.1,7664.3,2818z M8238.9,952.7c194.7-583.9,213.5-1347.1,53.4-1950c-31.4-109.9-56.5-135-248.1-229.2
				c-427.1-216.7-1196.3-439.6-1771-515l-210.4-28.2l414.5,427.1c229.2,235.5,417.6,430.2,417.6,433.3s59.6-12.5,125.6-37.7
				c270-97.3,540.1-40.8,759.9,153.9c185.2,163.3,257.5,326.6,260.6,571.5c0,191.5-100.5,458.5-204.1,546.3
				c-37.7,31.4-25.1,75.3,75.4,276.3c65.9,135,144.4,310.9,175.8,392.5C8151,1163.2,8169.8,1156.9,8238.9,952.7z M1330.8,506.9
				c-15.7-75.3-25.1-392.5-25.1-706.5v-571.5l-88,84.8c-47.1,43.9-128.7,166.4-179,270.1C878.5-99.1,922.6,183.5,1183.2,497.4
				c62.8,78.5,125.6,141.3,141.3,141.3S1343.3,579.1,1330.8,506.9z M8895.2,177.2C8980,1.4,8989.4-42.7,8973.7-209
				c-9.4-119.4-43.9-238.6-97.3-323.4c-84.8-150.7-263.8-351.7-285.7-329.7c-9.4,9.4,0,97.3,18.9,201c22,109.9,28.2,392.5,22,697.1
				L8619,544.6l87.9-84.8C8757,412.7,8841.8,284,8895.2,177.2z M7541.9,243.1c179-91.1,304.6-358,263.8-555.8
				c-81.6-383.1-540.1-555.8-847.8-320.3c-135,100.5-204.1,244.9-204.1,423.9C6753.7,180.3,7187,428.4,7541.9,243.1z M2514.6-1684.9
				c678.2-222.9,1381.6-339.1,2254.6-373.7l540.1-18.9l-383-257.5c-213.5-138.1-527.6-326.6-700.2-411.4
				c-329.7-163.3-825.8-351.7-929.5-351.7c-157,0-725.4,461.6-1011.1,819.6C2119-2071.2,1761-1465.1,1761-1389.8
				c0,9.4,88-25.1,194.7-78.5C2062.4-1521.6,2313.7-1619,2514.6-1684.9z M8103.9-1521.6c0-47.1-282.6-518.1-408.2-684.5
				c-191.5-244.9-599.7-624.9-851-785c-775.6-502.4-1667.4-675.2-2571.7-493c-238.6,47.1-593.5,157-637.4,194.7
				c-12.5,12.5,100.5,69.1,251.2,128.7c496.2,185.3,1080.2,527.6,1604.5,929.5c201,157,282.6,200.9,364.3,200.9
				c464.8,0,1598.3,257.5,2069.3,471C8069.4-1490.2,8103.9-1483.9,8103.9-1521.6z M2379.6-2743.1
				c109.9-106.7,263.8-241.8,342.3-298.3l147.6-103.7l-144.4-9.4c-480.5-31.4-822.7,288.9-860.4,803.9l-18.9,241.8l169.6-219.9
				C2106.3-2447.9,2272.8-2636.3,2379.6-2743.1z"/>
			<path class="st2" d="M5547.9,2676.7c-169.6-131.9-59.6-405.1,160.1-405.1c69.1,0,119.4,25.1,163.3,81.6
				c88,109.9,81.6,216.7-12.5,310.9C5764.6,2758.4,5657.9,2764.7,5547.9,2676.7z"/>
			<path class="st2" d="M2803.5,290.2c-345.4-172.7-420.8-606.1-157-894.9c282.6-304.6,756.8-244.9,932.6,119.4
				C3827.2,29.6,3312.1,541.5,2803.5,290.2z M3283.9,35.9c97.3-87.9,138.1-229.2,106.7-358C3356.1-447.6,3271.3-523,3130-545
				c-292-47.1-486.7,226.1-348.6,493c62.8,119.4,128.7,153.9,288.9,157C3161.5,104.9,3227.4,83,3283.9,35.9z"/>
			<path class="st2" d="M3937-899.9c-138.2-56.5-179-270-72.3-376.8c138.2-138.1,408.2-31.4,408.2,163.3
				C4273-953.3,4090.9-837.1,3937-899.9z"/>
			<path class="st2" d="M9121.3,3402c-34.6-12.5-103.7-69.1-147.6-125.6c-65.9-78.5-84.8-131.9-84.8-257.5
				c0-135,12.5-169.6,103.7-260.6c179-179,414.5-185.3,584-12.5C9890.7,3056.7,9535.8,3571.6,9121.3,3402z M9416.5,3141.4
				c47.1-37.7,50.2-185.3,0-235.5c-116.2-116.2-354.8,37.7-279.5,179C9203,3204.3,9306.6,3226.2,9416.5,3141.4z"/>
			<path class="st2" d="M8738.3,2064.4c-59.6-40.8-69.1-72.3-62.8-175.8c22-295.2,380-320.3,452.1-34.6
				C9174.7,2039.3,8907.8,2186.9,8738.3,2064.4z"/>
			<path class="st2" d="M684-1502.8c-144.4-109.9-106.8-380,59.6-420.8c201-50.2,370.5,122.4,295.2,304.6
				C976-1471.4,803.2-1414.8,684-1502.8z"/>
			<path class="st2" d="M8882.7-1964.3c-131.9-113-166.4-248.1-106.7-389.4c69-163.4,160-226.2,339-226.2
				c135,0,166.4,12.5,248.1,103.7c201,223,72.3,559-226.1,593.5C9008.3-1867,8980-1876.4,8882.7-1964.3z M9206.1-2174.8
				c28.2-34.6,31.4-62.8,6.3-100.5c-75.3-122.5-257.5-47.1-213.5,88C9024-2111.9,9146.5-2102.5,9206.1-2174.8z"/>
		</g>
	</g>
</g>
</svg>
